<svg xmlns="http://www.w3.org/2000/svg" version="1.1" xmlns:xlink="http://www.w3.org/1999/xlink" xmlns:svgjs="http://svgjs.com/svgjs" width="1000" height="1000"><rect width="1000" height="1000" rx="200" ry="200" fill="#f6f5f4"></rect><g transform="matrix(1,0,0,1,0,0)"><svg xmlns="http://www.w3.org/2000/svg" version="1.1" xmlns:xlink="http://www.w3.org/1999/xlink" xmlns:svgjs="http://svgjs.com/svgjs" width="1200pt" height="1200pt"><svg width="1200pt" height="1200pt" version="1.1" viewBox="0 0 1200 1200" xmlns="http://www.w3.org/2000/svg">
 <path d="m652.8 9.6016h-105.6c-21.602 0-38.398 18-38.398 38.398v87.602c-62.398 12-120 37.199-170.4 70.801l-62.398-62.398c-15.602-15.602-39.602-15.602-55.199 0l-74.398 74.398c-15.602 15.602-15.602 39.602 0 55.199l62.398 62.398c-33.602 50.398-58.801 108-70.801 170.4h-88.805c-21.602 0-38.398 18-38.398 38.398v105.6c0 21.602 18 38.398 38.398 38.398h87.602c12 62.398 37.199 120 70.801 170.4l-62.398 62.398c-15.602 15.602-15.602 39.602 0 55.199l74.398 74.398c15.602 15.602 39.602 15.602 55.199 0l62.398-62.398c50.398 33.602 108 58.801 170.4 70.801v87.602c0 21.602 18 38.398 38.398 38.398h105.6c21.602 0 38.398-18 38.398-38.398v-87.602c62.398-12 120-37.199 170.4-70.801l62.398 62.398c15.602 15.602 39.602 15.602 55.199 0l74.398-74.398c15.602-15.602 15.602-39.602 0-55.199l-62.398-62.398c33.602-50.398 58.801-108 70.801-170.4h87.602c21.602 0 38.398-18 38.398-38.398v-105.6c0-21.602-18-38.398-38.398-38.398h-87.602c-12-62.398-37.199-120-70.801-170.4l62.398-62.398c15.602-15.602 15.602-39.602 0-55.199l-74.398-74.398c-15.602-15.602-39.602-15.602-55.199 0l-62.398 62.398c-50.398-33.602-108-58.801-170.4-70.801l0.003906-86.402c2.3984-21.598-15.602-39.598-37.199-39.598zm-255.6 747.6c-15.602 8.3984-34.801 3.6016-43.199-10.801-8.3984-15.602-3.6016-34.801 10.801-43.199 15.602-9.6016 34.801-3.6016 43.199 10.801 8.3984 15.602 3.6016 34.801-10.801 43.199zm105.6 81.602c-8.3984 15.602-27.602 20.398-43.199 12-4.8008-2.3984-9.6016-7.1992-12-12-6-9.6016-6-21.602 0-32.398 8.3984-15.602 27.602-20.398 43.199-12 15.598 9.5977 20.398 28.797 12 44.398zm100.8 49.199c-12 0-22.801-6-27.602-15.602-2.3984-4.8008-4.8008-9.6016-4.8008-15.602 0-18 14.398-32.398 31.199-32.398 18 0 32.398 14.398 32.398 31.199 1.2031 18.004-13.195 32.402-31.195 32.402zm144-40.801c-15.602 9.6016-34.801 3.6016-43.199-10.801-8.3984-15.602-3.6016-34.801 10.801-43.199 15.602-8.3984 34.801-3.6016 43.199 10.801 8.3984 15.602 3.5977 34.801-10.801 43.199zm104.4-105.6c-8.3984 15.602-27.602 20.398-43.199 12-4.8008-2.3984-9.6016-7.1992-12-12-6-9.6016-6-21.602 0-32.398 8.3984-15.602 27.602-20.398 43.199-12 14.398 9.5977 20.398 28.797 12 44.398zm37.199-144c0 18-14.398 32.398-31.199 32.398-12 0-21.602-6-27.602-15.602-2.3984-4.8008-4.8008-9.6016-4.8008-15.602 0-18 14.398-32.398 31.199-32.398 18.004-1.1992 32.402 13.203 32.402 31.203zm-42-144c8.3984 14.398 4.8008 32.398-8.3984 42l-160.8 112.8c-2.3984 22.801-15.602 45.602-37.199 57.602-37.199 21.602-84 9.6016-106.8-27.602-21.602-37.199-9.6016-84 27.602-106.8 21.602-13.199 46.801-14.398 69.602-4.8008l176.4-86.398c13.199-6.0039 31.199-1.2031 39.598 13.199zm-49.199-70.801c-6 1.1992-12 3.6016-16.801 6l-57.602 27.602c-36-24-78-37.199-122.4-37.199-121.2-0.003906-220.8 99.598-220.8 220.8 0 20.398-16.801 37.199-37.199 37.199-20.398 0-37.199-16.801-37.199-37.199 0-162 132-294 294-294 74.398 0 144 28.801 198 76.801zm-164.4 225.6c-4.8008 18-22.801 28.801-42 24-18-4.8008-28.801-22.801-24-42 4.8008-18 22.801-28.801 42-24 18 4.8008 28.797 22.801 24 42z"></path>
</svg></svg></g></svg>